HIERARCHY
ROOT Hips
{
  OFFSET 90.7885 88.945 -76.2838
  CHANNELS 6 Xposition Yposition Zposition Zrotation Xrotation Yrotation
  JOINT LeftUpLeg
  {
    OFFSET 8.64259 1.95398 -2.38835
    CHANNELS 3 Zrotation Xrotation Yrotation
    JOINT LeftLeg
    {
      OFFSET 43.7702 0 0
      CHANNELS 3 Zrotation Xrotation Yrotation
      JOINT LeftFoot
      {
        OFFSET 40.6238 0 0
        CHANNELS 3 Zrotation Xrotation Yrotation
        JOINT LeftToeBase
        {
          OFFSET 12.7242 0 0
          CHANNELS 3 Zrotation Xrotation Yrotation
          End Site
          {
            OFFSET 0 0 0
          }
        }
      }
    }
  }
  JOINT RightUpLeg
  {
    OFFSET -8.2249 1.95398 -2.59336
    CHANNELS 3 Zrotation Xrotation Yrotation
    JOINT RightLeg
    {
      OFFSET 43.5653 0 0
      CHANNELS 3 Zrotation Xrotation Yrotation
      JOINT RightFoot
      {
        OFFSET 40.6238 0 0
        CHANNELS 3 Zrotation Xrotation Yrotation
        JOINT RightToeBase
        {
          OFFSET 12.7242 0 0
          CHANNELS 3 Zrotation Xrotation Yrotation
          End Site
          {
            OFFSET 0 0 0
          }
        }
      }
    }
  }
  JOINT Spine
  {
    OFFSET 0.165834 0.87714 6.61349
    CHANNELS 3 Zrotation Xrotation Yrotation
    JOINT Spine1
    {
      OFFSET 7.38963 1.71661e-005 0
      CHANNELS 3 Zrotation Xrotation Yrotation
      JOINT Spine2
      {
        OFFSET 11.9445 1.14441e-005 0
        CHANNELS 3 Zrotation Xrotation Yrotation
        JOINT Spine3
        {
          OFFSET 14.7254 4.19617e-005 0
          CHANNELS 3 Zrotation Xrotation Yrotation
          JOINT Spine4
          {
            OFFSET 10.9679 0 0
            CHANNELS 3 Zrotation Xrotation Yrotation
            JOINT RightShoulder
            {
              OFFSET 2.46616 -1.6653 3.69651
              CHANNELS 3 Zrotation Xrotation Yrotation
              JOINT RightArm
              {
                OFFSET 13.0012 0 0
                CHANNELS 3 Zrotation Xrotation Yrotation
                JOINT RightForeArm
                {
                  OFFSET 28.7848 1.52588e-005 0
                  CHANNELS 3 Zrotation Xrotation Yrotation
                  JOINT RightHand
                  {
                    OFFSET 26.5688 1.52588e-005 0
                    CHANNELS 3 Zrotation Xrotation Yrotation
                    End Site
                    {
                      OFFSET 0 0 0
                    }
                  }
                }
              }
            }
            JOINT LeftShoulder
            {
              OFFSET 2.38034 -1.29275 -3.7523
              CHANNELS 3 Zrotation Xrotation Yrotation
              JOINT LeftArm
              {
                OFFSET 16.3182 6.10352e-005 0
                CHANNELS 3 Zrotation Xrotation Yrotation
                JOINT LeftForeArm
                {
                  OFFSET 27.0901 0 0
                  CHANNELS 3 Zrotation Xrotation Yrotation
                  JOINT LeftHand
                  {
                    OFFSET 24.5451 1.52588e-005 0
                    CHANNELS 3 Zrotation Xrotation Yrotation
                    End Site
                    {
                      OFFSET 0 0 0
                    }
                  }
                }
              }
            }
            JOINT Neck
            {
              OFFSET 5.0226 -0.0266342 0
              CHANNELS 3 Zrotation Xrotation Yrotation
              JOINT Head
              {
                OFFSET 6.69363 2.86102e-005 0
                CHANNELS 3 Zrotation Xrotation Yrotation
                End Site
                {
                  OFFSET 0 0 0
                }
              }
            }
          }
        }
      }
    }
  }
}
MOTION
Frames:	12
Frame Time:	0.0416667
36.4824 8.63071 39.3461 5.52049 -11.6949 0.961539 -173.075 -2.21647 99.0877 -29.9851 15.1424 2.40071 87.2992 11.4551 -2.01917 19.9591 6.56307 -6.72285 165.097 -12.9247 82.5887 -14.5105 -6.78905 0.846108 82.8629 -12.0506 0.945479 37.1098 -1.09793 0.816855 0.16856 5.97208 -90.2541 14.93 0.207338 -0.541587 3.25891 0.183306 -0.550195 -19.2757 0.36052 -0.454253 0.736962 0.360521 -0.454248 94.0341 -13.9092 -104.355 33.2236 -11.0677 26.2845 -67.1829 26.1947 -91.4993 -67.5538 -12.7069 8.67537 -87.0757 -28.0559 78.3801 -4.40299 4.03045 11.6974 55.427 -34.1984 -111.63 36.6581 9.23364 21.5365 62.6606 -4.93995 -3.49076 -21.9236 -2.21069 1.27728 
36.4567 8.60168 39.3486 5.60104 -11.7684 0.886295 -172.715 -2.09812 99.3281 -30.2682 15.6363 2.05472 86.742 11.2795 -1.79406 20.6645 7.70381 -8.35248 165.089 -12.9231 82.4633 -14.726 -6.08601 0.806174 83.2681 -11.8728 2.39479 36.8569 -0.823434 0.0816545 0.16122 5.98292 -90.2561 14.9083 0.191869 -0.543205 3.23723 0.167775 -0.551145 -19.2974 0.346255 -0.460426 0.715293 0.346256 -0.460438 94.0929 -13.7267 -104.285 32.922 -10.7833 26.1912 -69.3677 25.6685 -91.3836 -65.9653 -13.4826 10.2617 -87.1372 -28.3254 78.3335 -4.03356 4.11129 11.5791 54.8621 -34.1259 -111.846 35.8946 9.03127 21.5261 60.1719 -5.04602 -4.30393 -18.4907 -2.11367 3.01956 
36.439 8.59476 39.3253 5.51245 -11.7779 0.804403 -172.582 -2.19804 99.3956 -29.9539 15.799 1.88081 87.4872 11.5154 -2.21785 18.7086 6.80579 -6.65545 165.074 -12.6975 82.391 -15.1469 -6.3035 0.800584 83.2845 -11.8936 1.9967 37.0175 -0.913832 0.301676 0.181691 6.00145 -90.2418 14.8714 0.239576 -0.521343 3.20034 0.216395 -0.531391 -19.3344 0.385179 -0.425244 0.678256 0.385182 -0.425247 94.2341 -13.7594 -103.892 32.3503 -10.3225 25.7822 -71.2617 24.9451 -91.5752 -64.2762 -14.394 12.2367 -87.2515 -27.8302 77.9662 -4.1192 3.70529 11.8428 54.79 -34.0094 -111.995 36.31 9.13964 21.5302 59.3097 -5.34935 -5.09177 -17.0599 -2.06118 4.33145 
36.4586 8.6266 39.329 5.64751 -11.7627 0.78027 -172.706 -2.12098 99.2824 -30.0222 15.707 1.97671 87.3484 11.4525 -2.25363 18.9357 6.81204 -6.73113 165.015 -12.6334 82.3198 -15.2279 -6.03364 0.831062 83.3873 -11.8242 2.45315 36.9414 -0.951253 0.43192 0.152474 5.99195 -90.2592 14.8902 0.173124 -0.546582 3.21913 0.148894 -0.553682 -19.3154 0.329388 -0.469291 0.697274 0.329382 -0.469295 94.1706 -13.5504 -104.16 32.3409 -10.4316 25.8783 -72.2536 24.7078 -91.1593 -63.3347 -14.4828 12.7139 -87.2111 -28.5745 78.2592 -3.50382 4.02976 11.7608 54.5604 -33.9903 -112.075 36.2891 9.21042 21.7391 59.2805 -5.15519 -4.90507 -17.2197 -1.99924 4.21475 
36.4408 8.60699 39.339 5.66577 -11.7662 0.768616 -172.611 -2.125 99.3564 -30.032 15.957 1.90063 87.3497 11.4612 -2.18971 18.9312 6.6311 -6.51111 165.063 -12.6756 82.3461 -15.1751 -5.92704 0.787263 83.3686 -11.8131 2.58368 37.1957 -0.795404 -0.0950449 0.141253 5.98588 -90.2629 14.9022 0.149044 -0.550434 3.23109 0.124677 -0.556491 -19.3034 0.307583 -0.480207 0.709239 0.307585 -0.480218 94.146 -13.5612 -104.22 32.3019 -10.6152 25.9697 -72.7701 24.7388 -90.9964 -61.8019 -14.1959 12.8431 -87.0248 -28.75 78.6757 -3.61283 4.47009 11.5905 54.4531 -33.9332 -111.838 35.4337 8.73574 21.0288 59.4631 -5.01184 -4.63094 -17.5665 -1.99606 3.81838 
36.4305 8.60019 39.3358 5.7099 -11.7104 0.793314 -172.674 -2.02048 99.3452 -30.0912 15.9734 1.97478 87.2437 11.4071 -2.24781 19.1769 6.94115 -6.95739 165.083 -12.6837 82.4132 -15.1225 -6.03839 0.802341 83.2994 -11.8724 2.18302 36.9233 -0.954434 0.446199 0.120311 5.96676 -90.3006 14.9401 0.0887774 -0.617575 3.26901 0.0615015 -0.620899 -19.2652 0.270273 -0.56236 0.747503 0.270267 -0.56235 94.1019 -13.1842 -104.522 32.9328 -11.2147 26.2535 -70.6297 25.5354 -90.9357 -64.6874 -13.4652 10.6192 -87.2878 -29.2112 78.2887 -3.02032 4.22177 12.0926 54.0726 -33.9585 -112.265 35.9589 9.06683 21.5767 59.6331 -4.59053 -4.12991 -17.8518 -1.90654 3.50683 
36.4111 8.60302 39.3203 5.65233 -11.7646 0.739203 -172.637 -2.15069 99.3209 -29.9694 16.0215 1.92 87.2542 11.4901 -1.95943 19.1524 7.12856 -7.17686 165.089 -12.6237 82.3698 -15.3027 -5.96684 0.778086 83.3844 -11.8797 2.26632 37.17 -0.97147 0.429503 0.119014 5.95154 -90.3275 14.9707 0.0727949 -0.669122 3.2996 0.0432711 -0.671679 -19.2344 0.270528 -0.616321 0.77829 0.270521 -0.616329 94.0481 -12.8694 -104.822 32.4241 -10.5865 26.4135 -72.8645 24.5771 -91.023 -63.5036 -14.9471 13.3965 -87.3735 -30.2958 78.4208 -1.8712 4.32467 11.995 53.6019 -33.7775 -112.351 35.4046 8.8314 21.3178 59.6383 -4.08647 -3.46305 -18.0011 -1.80768 2.87788 
36.4237 8.60019 39.3185 5.83852 -11.7631 0.708332 -172.679 -2.11501 99.2779 -29.9934 16.0929 1.95332 87.2672 11.4827 -2.02628 19.0799 7.10418 -7.1261 164.971 -12.6701 82.2661 -15.236 -5.80146 0.838408 83.472 -11.8203 2.64834 36.9493 -0.836497 0.0942388 0.0895165 5.96576 -90.3333 14.9418 0.011634 -0.671841 3.2707 -0.0179395 -0.671705 -19.2632 0.213009 -0.637295 0.749497 0.21301 -0.637288 94.1783 -12.5498 -104.623 32.7162 -10.8041 26.225 -73.2828 24.6793 -90.6836 -62.9065 -14.7206 13.231 -86.9954 -30.2685 79.1447 -2.12046 4.48016 11.4082 53.924 -33.7951 -112.117 35.7966 8.97196 21.431 60.1091 -4.03533 -3.46131 -18.3074 -1.73846 2.80087 
36.4061 8.58792 39.3122 5.9023 -11.744 0.702024 -172.61 -2.08924 99.3362 -29.994 16.344 1.89446 87.2996 11.4391 -2.26015 18.7646 6.12388 -5.8519 164.984 -12.6456 82.2958 -15.314 -5.77541 0.849069 83.41 -11.8498 2.34582 37.2614 -1.04821 0.631048 0.078591 5.93319 -90.385 15.0068 -0.0359224 -0.768911 3.33566 -0.0697233 -0.766577 -19.1977 0.196817 -0.744161 0.814893 0.196823 -0.744168 94.1279 -11.938 -105.073 33.2298 -11.0251 26.7633 -71.8179 25.1739 -90.8234 -63.0746 -13.8645 11.8309 -87.1302 -31.6844 79.2549 -0.908375 4.79941 10.9828 53.6039 -33.5978 -111.975 35.1389 8.79624 21.4069 60.1894 -3.28585 -1.98138 -18.8598 -1.8717 1.47005 
36.4098 8.59165 39.2976 5.75176 -11.7939 0.610041 -172.728 -2.29838 99.1603 -29.8052 15.9657 1.95937 87.4111 11.5446 -2.09064 19.0964 6.78959 -6.74956 164.932 -12.553 82.193 -15.4955 -6.13282 0.825375 83.5208 -11.9525 1.98681 37.0598 -0.9598 0.425145 0.100614 5.91624 -90.3939 15.0407 0.00309045 -0.792689 3.36949 -0.0317983 -0.792054 -19.1638 0.24117 -0.755108 0.848783 0.241176 -0.755128 94.0922 -11.8328 -105.227 33.9628 -11.7879 27.3059 -67.953 26.0791 -91.2718 -65.5663 -12.1646 8.42312 -87.1874 -32.579 79.3758 -0.184569 5.14944 11.2312 53.6005 -33.6349 -111.959 35.3014 8.7877 21.2678 60.4153 -2.99562 -1.47614 -19.196 -1.89968 1.12317 
36.4182 8.59717 39.2838 5.76124 -11.8019 0.609452 -172.705 -2.32804 99.195 -29.7733 15.7877 1.92749 87.68 11.4795 -2.78047 18.4421 6.25167 -5.92302 164.923 -12.4801 82.1692 -15.6726 -6.02242 0.844446 83.6364 -11.898 2.3194 37.0097 -0.876628 0.194265 0.0534589 5.86917 -90.4186 15.1345 -0.102782 -0.826258 3.46325 -0.139048 -0.820941 -19.0698 0.150282 -0.818947 0.942838 0.150281 -0.818958 93.3619 -12.1739 -107.061 32.1105 -9.8507 28.7721 -71.2542 24.5799 -91.4129 -59.6456 -12.7944 11.3351 -87.3298 -32.6655 79.1339 -0.0709001 5.07776 12.7958 52.4427 -33.0914 -112.552 36.0144 8.85835 20.9825 60.218 -2.48767 -0.795814 -19.4838 -1.82386 0.624336 
36.4028 8.59295 39.3155 5.79627 -11.7222 0.652255 -172.574 -2.22722 99.2803 -29.7958 16.4929 1.8337 87.3397 11.584 -1.85202 18.8193 6.14826 -5.89851 165.01 -12.4371 82.3182 -15.7419 -5.76849 0.860472 83.6009 -11.9022 2.22567 36.5614 -0.628204 -0.39814 0.0467607 5.89462 -90.4108 15.0835 -0.11196 -0.809272 3.41228 -0.147474 -0.803558 -19.1209 0.136424 -0.805504 0.891779 0.136423 -0.805516 93.5557 -12.0493 -106.597 31.9821 -9.12272 29.0363 -70.275 24.5332 -92.7196 -63.818 -14.762 13.2402 -87.0773 -31.6775 79.3526 -1.11937 4.23936 13.9245 52.3783 -33.4161 -112.776 32.8239 7.53209 19.3066 61.1551 -2.72664 -0.965206 -20.6944 -2.01673 1.13385 
